<svg xmlns="http://www.w3.org/2000/svg" viewBox="0 0 331.39 331.73"><defs><style>.cls-1,.cls-4{fill:#4d63ff;}.cls-1,.cls-2,.cls-3,.cls-4{stroke:#000;stroke-miterlimit:10;}.cls-1,.cls-2,.cls-3{stroke-width:8px;}.cls-2{fill:#fff;}.cls-3{fill:none;}.cls-4{stroke-width:6px;}</style></defs><title>Ресурс 3xxhdpi</title><g id="Слой_2" data-name="Слой 2"><g id="Слой_1-2" data-name="Слой 1"><path class="cls-1" d="M98.22,34.64V73.27L70.9,100.59H32.26L5,73.27V36.76L38.57,70.38a18.52,18.52,0,0,0,1.57,1.4A20.8,20.8,0,0,0,69.41,42.52,17.23,17.23,0,0,0,68,41L34.37,7.32H70.9Z"/><polygon class="cls-1" points="314.63 251.05 314.63 289.68 287.31 317 248.69 317 221.37 289.68 221.37 251.05 248.69 223.73 287.31 223.73 314.63 251.05"/><polygon class="cls-2" points="258.51 247.47 245.1 260.88 245.1 279.85 258.51 293.25 277.48 293.25 290.89 279.85 290.89 260.88 277.48 247.47 258.51 247.47"/><rect class="cls-3" x="140.48" y="55.77" width="38.64" height="212.78" transform="translate(-67.86 160.49) rotate(-45)"/><line class="cls-3" x1="222.88" y1="225.26" x2="181.57" y2="183.95"/><line class="cls-3" x1="148.23" y1="150.61" x2="96.99" y2="99.37"/><path class="cls-1" d="M112,220.17a49.42,49.42,0,1,0,0,69.9A49.41,49.41,0,0,0,112,220.17Zm-60,60a35.4,35.4,0,1,1,50.06,0A35.4,35.4,0,0,1,52,280.15Z"/><circle class="cls-3" cx="77.04" cy="255.12" r="35.4" transform="translate(-122.62 78.6) rotate(-31.72)"/><line class="cls-3" x1="111.99" y1="290.07" x2="102.07" y2="280.15"/><line class="cls-3" x1="52.01" y1="230.09" x2="42.09" y2="220.17"/><line class="cls-3" x1="42.09" y1="220.17" x2="2.83" y2="259.43"/><line class="cls-3" x1="19.44" y1="276.04" x2="29" y2="266.74"/><line class="cls-3" x1="2.83" y1="259.43" x2="19.44" y2="276.04"/><line class="cls-3" x1="112.42" y1="289.64" x2="73.16" y2="328.9"/><line class="cls-3" x1="56.55" y1="312.29" x2="65.85" y2="302.73"/><line class="cls-3" x1="73.16" y1="328.9" x2="56.55" y2="312.29"/><path class="cls-3" d="M307.07,126.27l-42.82,42.82c-6.47-17.06-21.63-39.06-42.53-60C201,88.41,179.2,73.33,162.21,66.77l42.68-42.68Z"/><rect class="cls-1" x="203.43" y="65.81" width="113.66" height="11.3" transform="translate(126.76 -163.1) rotate(45)"/><polygon class="cls-2" points="327.35 105.99 315.06 118.28 212.88 16.1 224.98 4 239.21 4 327.02 91.81 327.11 95.72 327.35 105.99"/><circle class="cls-4" cx="238.85" cy="92.88" r="10.69"/><path class="cls-3" d="M183.74,77.87a3.78,3.78,0,0,1,.38.43c5.78,7-3.94,28.13-24.07,55.8"/><path class="cls-3" d="M95.46,209.24c14.9-14.9,28.53-29.68,40.44-43.65"/><path class="cls-3" d="M253.35,148.48a4.23,4.23,0,0,0-.7-.58c-7.3-5.35-28.25,4.37-55.57,24.23"/><path class="cls-3" d="M166.61,196.3c-13.76,11.72-28.28,25.12-42.92,39.76"/></g></g></svg>