<?xml version="1.0" encoding="iso-8859-1"?>
<!-- Generator: Adobe Illustrator 19.0.0, SVG Export Plug-In . SVG Version: 6.00 Build 0)  -->
<svg version="1.1" id="Capa_1" xmlns="http://www.w3.org/2000/svg" xmlns:xlink="http://www.w3.org/1999/xlink" x="0px" y="0px"
	 viewBox="0 0 484.94 484.94" fill="#4d63ff" style="enable-background:new 0 0 484.94 484.94;" xml:space="preserve">
<g>
	<g>
		<path d="M451.92,408.531c-0.77-1.158-1.829-2.096-3.072-2.72l-16.744-8.368c-0.343-1.255-0.995-2.405-1.896-3.344L289.704,253.595
			l20.424-20.4c17.64-17.655,38.017-32.344,60.344-43.496l8.376-4.216c3.359,0.401,6.737,0.612,10.12,0.632
			c23.222,0.025,45.491-9.236,61.848-25.72l9.504-9.504c23.789-23.807,29.682-60.161,14.632-90.264
			c-1.977-3.951-6.783-5.551-10.734-3.574c-0.763,0.382-1.461,0.884-2.066,1.486l-39.6,39.6c-9.361,9.384-24.557,9.404-33.941,0.043
			c-4.513-4.501-7.05-10.613-7.051-16.987c-0.013-6.367,2.519-12.476,7.032-16.968l39.6-39.6c3.121-3.127,3.116-8.193-0.012-11.314
			c-0.603-0.602-1.299-1.104-2.06-1.486c-30.08-15.112-66.459-9.233-90.248,14.584l-9.504,9.504
			c-16.553,16.468-25.829,38.875-25.76,62.224c0.017,3.255,0.228,6.506,0.632,9.736l-4.152,8.368
			c-11.17,22.328-25.877,42.703-43.552,60.336l-20.424,20.424l-12.24-12.232l22.624-22.648c3.118-3.123,3.118-8.181,0-11.304
			l-10.96-10.96c-1.472-1.473-3.461-2.314-5.544-2.344l-16.984-0.232l-2.784-9.928c-0.376-1.32-1.081-2.522-2.048-3.496
			L97.752,16.395C75.866-5.476,40.395-5.463,18.524,16.423S-3.334,73.78,18.552,95.651l106.96,106.96
			c0.943,0.941,2.106,1.631,3.384,2.008l10.632,3.16l0.6,17.6c0.071,2.027,0.908,3.951,2.344,5.384l10.56,10.56
			c3.124,3.123,8.188,3.123,11.312,0l22.576-22.592l12.216,12.216l-24.36,24.352c-17.605,17.689-37.983,32.381-60.328,43.496
			l-8.304,4.224c-3.238-0.408-6.497-0.622-9.76-0.64c-23.351-0.071-45.759,9.202-62.232,25.752l-9.504,9.504
			c-23.835,23.774-29.728,60.158-14.616,90.24c1.983,3.948,6.791,5.541,10.74,3.558c0.762-0.383,1.457-0.884,2.06-1.486l39.6-39.592
			c9.295-9.45,24.49-9.575,33.94-0.28c9.45,9.295,9.575,24.49,0.28,33.94c-0.091,0.093-0.183,0.185-0.276,0.276l-39.6,39.6
			c-3.118,3.13-3.108,8.196,0.022,11.314c0.605,0.602,1.302,1.104,2.066,1.486c30.09,15.035,66.424,9.146,90.224-14.624l9.504-9.504
			c18.958-18.835,28.203-45.34,25.072-71.88l4.28-8.496c11.128-22.322,25.804-42.69,43.456-60.312l24.344-24.344l136.408,136.376
			c-0.096,1.359,0.16,2.721,0.744,3.952l11.256,22.632c0.624,1.243,1.562,2.302,2.72,3.072l33.944,22.632
			c3.172,2.112,7.393,1.693,10.088-1l22.632-22.632c2.698-2.691,3.123-6.913,1.016-10.088L451.92,408.531z M337.68,47.227
			l9.504-9.504c15.961-15.989,39.348-22.047,61.064-15.816L377.28,52.883c-15.689,15.552-15.801,40.879-0.248,56.568
			c15.552,15.689,40.879,15.801,56.568,0.248c0.083-0.082,0.166-0.165,0.248-0.248l30.96-30.96
			c6.192,21.711,0.147,45.074-15.8,61.056l-9.504,9.504c-15.958,16.077-38.607,23.613-61.016,20.304h-0.176
			c-3.719-0.531-7.392-1.349-10.984-2.448l-0.488-0.152c-3.494-1.099-6.898-2.463-10.184-4.08l-0.48-0.24
			c-3.347-1.676-6.557-3.613-9.6-5.792c-3.148-2.275-6.109-4.798-8.856-7.544c-11.065-11.025-18.201-25.38-20.312-40.856
			c-0.505-3.328-0.759-6.69-0.76-10.056C316.567,79.072,324.141,60.72,337.68,47.227z M264.84,187.899
			c16.727-16.672,30.971-35.66,42.296-56.384c0.352,0.864,0.8,1.68,1.184,2.528c0.616,1.4,1.24,2.8,1.936,4.16
			c0.584,1.136,1.216,2.248,1.848,3.36c0.632,1.112,1.344,2.336,2.072,3.48c0.728,1.144,1.424,2.216,2.184,3.304
			c0.76,1.088,1.6,2.152,2.4,3.2c0.8,1.048,1.6,2.112,2.456,3.136c0.856,1.024,1.976,2.208,2.992,3.296c0.736,0.8,1.4,1.6,2.168,2.4
			c0.608,0.6,1.264,1.12,1.88,1.696c1.328,1.248,2.656,2.488,4.048,3.648c0.72,0.6,1.472,1.152,2.208,1.736
			c1.456,1.136,2.928,2.232,4.448,3.272c0.712,0.488,1.44,0.968,2.168,1.432c1.664,1.067,3.365,2.077,5.104,3.032
			c0.616,0.336,1.224,0.688,1.848,1.016c2.288,1.184,4.616,2.288,7.008,3.264l0.224,0.104
			c-20.746,11.322-39.763,25.557-56.472,42.272l-20.448,20.432l-28.496-28.488l-5.472-5.48L264.84,187.899z M158.712,224.395
			l-2.672-2.672l-0.688-20.24c-0.116-3.44-2.42-6.421-5.72-7.4l-14.216-4.224L29.904,84.395
			c-15.636-15.625-15.645-40.968-0.02-56.604s40.968-15.645,56.604-0.02l105.888,105.92l3.832,13.672
			c0.96,3.411,4.049,5.784,7.592,5.832l19.712,0.272l3.016,3.016L158.712,224.395z M147.288,441.267l-9.536,9.528
			c-15.976,15.952-39.341,21.996-61.048,15.792l30.96-30.96c15.43-15.81,15.122-41.134-0.688-56.564
			c-15.528-15.154-40.306-15.167-55.848-0.028l-30.976,30.96c-6.243-21.715-0.188-45.106,15.808-61.064l9.504-9.504
			c28.154-28.03,73.67-28.03,101.824,0c10.993,11.052,18.114,25.365,20.296,40.8v0.048
			C170.904,402.676,163.368,425.321,147.288,441.267z M220.088,300.579c-16.72,16.692-30.956,35.7-42.272,56.44
			c-0.112-0.288-0.264-0.552-0.384-0.8c-0.88-2.107-1.84-4.171-2.88-6.192c-0.44-0.848-0.912-1.672-1.384-2.512
			c-0.8-1.464-1.664-2.912-2.568-4.328c-0.6-0.944-1.208-1.864-1.84-2.784c-0.888-1.28-1.824-2.528-2.784-3.76
			c-0.696-0.912-1.384-1.832-2.128-2.72c-1.136-1.352-2.352-2.656-3.576-3.952c-0.576-0.6-1.08-1.248-1.672-1.84
			c-0.592-0.592-1.32-1.176-1.968-1.784c-1.24-1.168-2.48-2.336-3.776-3.424c-0.952-0.8-1.944-1.536-2.928-2.296
			c-1.136-0.872-2.28-1.736-3.448-2.552c-1.032-0.712-2.072-1.4-3.136-2.072c-1.216-0.8-2.456-1.496-3.704-2.2
			c-1.048-0.592-2.088-1.192-3.16-1.736c-1.48-0.76-3-1.44-4.528-2.112c-0.76-0.336-1.488-0.736-2.256-1.056
			c20.752-11.283,39.758-25.517,56.424-42.256l24.344-24.344l33.968,33.968L220.088,300.579z M401.904,411.075l-203.64-203.64
			l11.328-11.328l203.64,203.64L401.904,411.075z M444.248,459.243l-26.712-17.808l-7.784-15.568l14.472-14.472l15.568,7.784
			l17.808,26.712L444.248,459.243z"/>
	</g>
</g>
<g>
</g>
<g>
</g>
<g>
</g>
<g>
</g>
<g>
</g>
<g>
</g>
<g>
</g>
<g>
</g>
<g>
</g>
<g>
</g>
<g>
</g>
<g>
</g>
<g>
</g>
<g>
</g>
<g>
</g>
</svg>
